<svg width="31" height="30" viewBox="0 0 31 30" fill="none" xmlns="http://www.w3.org/2000/svg">
<g clip-path="url(#clip0_110_1325)">
<path d="M30.2478 15.0006L26.8517 11.23L27.3834 6.18211L22.4173 5.13083L19.8842 0.730225L15.2479 2.80234L14.6221 15.0006L15.2479 27.1989L19.8842 29.271L22.4173 24.8704L27.3834 23.8191L26.8517 18.7712L30.2478 15.0006Z" fill="#D9D9D9"/>
<path d="M10.6116 0.730225L8.07852 5.13083L3.11244 6.18217L3.64418 11.23L0.248047 15.0006L3.64418 18.7712L3.11244 23.8191L8.07852 24.8704L10.6117 29.271L15.2481 27.1989V2.80234L10.6116 0.730225Z" fill="#ECECEC"/>
<path d="M21.5372 11.7162L20.2242 10.5443L15.2488 16.1184L14.623 17.5037L15.2488 18.7614L21.5372 11.7162Z" fill="#24262B"/>
<path d="M10.0198 13.6752L8.77539 14.9197L14.0075 20.1518L15.2485 18.7614V16.1184L13.9348 17.5902L10.0198 13.6752Z" fill="#24262B"/>
</g>
<defs>
<clipPath id="clip0_110_1325">
<rect width="30" height="30" fill="white" transform="translate(0.248047 0.000610352)"/>
</clipPath>
</defs>
</svg>
