<svg width="22" height="22" viewBox="0 0 22 22" fill="none" xmlns="http://www.w3.org/2000/svg">
<path d="M19.4325 11.7162H13.2163C12.3879 11.7162 11.7163 12.3878 11.7163 13.2162V19.4324C11.7163 20.2608 12.3879 20.9324 13.2163 20.9324H19.4325C20.261 20.9324 20.9325 20.2608 20.9325 19.4324V13.2162C20.9325 12.3878 20.261 11.7162 19.4325 11.7162Z" stroke="#0D775E"/>
<path d="M8.21622 0.5H2C1.17157 0.5 0.5 1.17157 0.5 2V8.21622C0.5 9.04464 1.17157 9.71622 2 9.71622H8.21622C9.04464 9.71622 9.71622 9.04464 9.71622 8.21622V2C9.71622 1.17157 9.04464 0.5 8.21622 0.5Z" stroke="#0D775E"/>
<path d="M19.4325 0.5H13.2163C12.3879 0.5 11.7163 1.17157 11.7163 2V8.21622C11.7163 9.04464 12.3879 9.71622 13.2163 9.71622H19.4325C20.261 9.71622 20.9325 9.04464 20.9325 8.21622V2C20.9325 1.17157 20.261 0.5 19.4325 0.5Z" stroke="#0D775E"/>
<path d="M8.21622 11.7162H2C1.17157 11.7162 0.5 12.3878 0.5 13.2162V19.4324C0.5 20.2608 1.17157 20.9324 2 20.9324H8.21622C9.04464 20.9324 9.71622 20.2608 9.71622 19.4324V13.2162C9.71622 12.3878 9.04464 11.7162 8.21622 11.7162Z" stroke="#0D775E"/>
</svg>
