<svg width="65" height="65" viewBox="0 0 65 65" fill="none" xmlns="http://www.w3.org/2000/svg">
<path d="M62.0461 48.2028C62.0994 50.2028 61.5661 52.0962 60.6061 53.7228C60.0728 54.6828 59.3528 55.5629 58.5528 56.2829C56.7128 57.9896 54.2861 59.0296 51.5927 59.1096C47.6994 59.1896 44.2594 57.1896 42.3661 54.1229C41.3528 52.5496 40.7394 50.6563 40.7128 48.6563C40.6328 45.2963 42.1261 42.2562 44.5261 40.2562C46.3394 38.7629 48.6328 37.8296 51.1395 37.7762C57.0328 37.6429 61.9128 42.3095 62.0461 48.2028Z" stroke="#474747" stroke-width="1.5" stroke-miterlimit="10" stroke-linecap="round" stroke-linejoin="round"/>
<path d="M47.2195 48.5231L49.9128 51.083L55.4862 45.6963" stroke="#474747" stroke-width="1.5" stroke-linecap="round" stroke-linejoin="round"/>
<path d="M9.16626 20.2832L32.7129 33.9098L56.0995 20.3631" stroke="#474747" stroke-width="1.5" stroke-linecap="round" stroke-linejoin="round"/>
<path d="M32.7129 58.07V33.8833" stroke="#474747" stroke-width="1.5" stroke-linecap="round" stroke-linejoin="round"/>
<path d="M58.3394 24.8964V39.9898C58.3394 40.1231 58.3395 40.2297 58.3128 40.363C56.4462 38.7363 54.0461 37.7764 51.3795 37.7764C48.8728 37.7764 46.5528 38.6564 44.7128 40.1231C42.2595 42.0698 40.7128 45.0831 40.7128 48.4431C40.7128 50.4431 41.2728 52.3364 42.2594 53.9364C42.4994 54.3631 42.7928 54.7631 43.1128 55.1364L38.2328 57.8298C35.1928 59.5365 30.2328 59.5365 27.1928 57.8298L12.9528 49.9364C9.72613 48.1497 7.08618 43.6698 7.08618 39.9898V24.8964C7.08618 21.2164 9.72613 16.7364 12.9528 14.9498L27.1928 7.05637C30.2328 5.3497 35.1928 5.3497 38.2328 7.05637L52.4728 14.9498C55.6995 16.7364 58.3394 21.2164 58.3394 24.8964Z" stroke="#474747" stroke-width="1.5" stroke-linecap="round" stroke-linejoin="round"/>
</svg>
