<svg width="45" height="46" viewBox="0 0 45 46" fill="none" xmlns="http://www.w3.org/2000/svg">
<path d="M44.37 11.6277C44.3241 11.536 44.3241 11.4901 44.2324 11.3984C44.1866 11.3067 44.0949 11.2609 43.9574 11.215L33.4581 5.75908L22.8213 0.303147C22.6379 0.211451 22.4087 0.211451 22.2253 0.303147L11.5427 5.75908L0.997595 11.215C0.86005 11.2609 0.722506 11.3984 0.676657 11.536C0.630809 11.6277 0.630809 11.6735 0.584961 11.7652V11.811V33.6348C0.584961 33.864 0.722506 34.0933 0.951747 34.2308L22.1795 45.0968C22.1795 45.0968 22.2253 45.0968 22.2253 45.1427C22.2253 45.1427 22.2712 45.1427 22.2712 45.1885C22.3629 45.2344 22.4087 45.2344 22.5004 45.2344C22.5921 45.2344 22.6379 45.2344 22.7296 45.1885C22.7296 45.1885 22.7755 45.1885 22.7755 45.1427C22.7755 45.1427 22.8213 45.1427 22.8213 45.0968L44.049 34.2308C44.2783 34.0933 44.4158 33.864 44.4158 33.6348V11.811C44.4158 11.7193 44.4158 11.6735 44.37 11.6277ZM22.5004 1.63274L32.8162 6.95113L42.3068 11.811L35.7964 15.158L15.99 4.97966L22.5004 1.63274ZM31.1199 19.0092L33.4123 17.8172L34.9253 17.0377V19.8803L33.6874 19.3301C33.4123 19.1926 33.0913 19.2843 32.9079 19.5135L31.1657 21.6684V19.0092H31.1199ZM12.1846 6.95113L14.5228 5.75908L34.3292 15.8915L30.478 17.9089L10.6716 7.73055L12.1846 6.95113ZM21.8585 43.4921L1.91456 33.2221V12.9114L11.5885 17.863L21.8585 23.1355V43.4921ZM22.5004 21.9893L12.1846 16.6709L2.69398 11.811L9.20442 8.46413L29.0108 18.6424L22.5004 21.9893ZM43.0862 33.268L23.1423 43.4463V23.1355L29.8361 19.6969V23.5482C29.8361 23.915 30.1112 24.1901 30.478 24.1901C30.7072 24.1901 30.8906 24.0984 31.0282 23.915L33.5957 20.7514L35.3379 21.485C35.6588 21.6226 36.0715 21.485 36.209 21.1182C36.2549 21.0724 36.2549 20.9807 36.2549 20.889V16.3959L43.0862 12.9114V33.268Z" fill="#ABABAB"/>
</svg>
