<svg width="72" height="72" viewBox="0 0 72 72" fill="none" xmlns="http://www.w3.org/2000/svg">
<g clip-path="url(#clip0_30_3652)">
<path d="M63.391 34.1353V47.4181C63.391 60.7011 58.0955 66.0262 44.783 66.0262H28.8377C27.1219 66.0262 25.5538 65.9375 24.1042 65.7304" stroke="#474747" stroke-width="1.5" stroke-linecap="round" stroke-linejoin="round"/>
<path d="M10.2295 46.8562V34.1353" stroke="#474747" stroke-width="1.5" stroke-linecap="round" stroke-linejoin="round"/>
<path d="M36.8252 36.4427C42.239 36.4427 46.2327 32.035 45.7002 26.6212L43.718 6.85938H29.9027L27.9206 26.6212C27.3881 32.035 31.4115 36.4427 36.8252 36.4427Z" stroke="#474747" stroke-width="1.5" stroke-linecap="round" stroke-linejoin="round"/>
<path d="M55.4626 36.4427C61.4384 36.4427 65.8167 31.591 65.225 25.6447L64.3966 17.5093C63.3316 9.81764 60.3733 6.85938 52.6225 6.85938H43.5996L45.6705 27.5973C46.203 32.4786 50.5813 36.4427 55.4626 36.4427Z" stroke="#474747" stroke-width="1.5" stroke-linecap="round" stroke-linejoin="round"/>
<path d="M18.0101 36.4427C22.8914 36.4427 27.2993 32.4786 27.7726 27.5973L28.4235 21.0595L29.8435 6.85938H20.8206C13.0697 6.85938 10.1115 9.81764 9.04646 17.5093L8.21804 25.6447C7.62638 31.591 12.0343 36.4427 18.0101 36.4427Z" stroke="#474747" stroke-width="1.5" stroke-linecap="round" stroke-linejoin="round"/>
<path d="M27.8612 57.1512C27.8612 59.37 27.2399 61.4705 26.1454 63.2455C25.5833 64.1922 24.9029 65.05 24.1041 65.7304C24.0154 65.8488 23.9267 65.9375 23.8083 66.0262C21.7375 67.89 19.0158 68.9845 16.0279 68.9845C12.4187 68.9845 9.19408 67.3574 7.06408 64.8132C7.00491 64.7244 6.91632 64.6654 6.85715 64.5767C6.50215 64.1625 6.17671 63.7189 5.91046 63.2455C4.81588 61.4705 4.19458 59.37 4.19458 57.1512C4.19458 53.4237 5.91041 50.0808 8.63208 47.9212C9.135 47.5071 9.66743 47.1521 10.2295 46.8563C11.9453 45.88 13.9275 45.3179 16.0279 45.3179C18.9862 45.3179 21.6487 46.3828 23.7195 48.1874C24.0745 48.4536 24.4 48.7792 24.6958 49.1046C26.6483 51.2346 27.8612 54.045 27.8612 57.1512Z" stroke="#474747" stroke-width="1.5" stroke-miterlimit="10" stroke-linecap="round" stroke-linejoin="round"/>
<path d="M20.4359 57.0918H11.6201" stroke="#474747" stroke-width="1.5" stroke-miterlimit="10" stroke-linecap="round" stroke-linejoin="round"/>
</g>
<defs>
<clipPath id="clip0_30_3652">
<rect width="71" height="71" fill="white" transform="translate(0.736328 0.942871)"/>
</clipPath>
</defs>
</svg>
