<svg width="72" height="72" viewBox="0 0 72 72" fill="none" xmlns="http://www.w3.org/2000/svg">
<g clip-path="url(#clip0_30_3659)">
<path d="M38.7246 48.2764H41.3913C44.3246 48.2764 46.7246 45.8764 46.7246 42.943V16.2764H22.7246C18.7246 16.2764 15.2313 18.4897 13.418 21.743" stroke="#474747" stroke-width="1.5" stroke-linecap="round" stroke-linejoin="round"/>
<path d="M12.0579 56.2764C12.0579 60.703 15.6312 64.2764 20.0579 64.2764H22.7245C22.7245 61.343 25.1245 58.943 28.0579 58.943C30.9912 58.943 33.3912 61.343 33.3912 64.2764H44.0579C44.0579 61.343 46.4579 58.943 49.3912 58.943C52.3245 58.943 54.7245 61.343 54.7245 64.2764H57.3912C61.8179 64.2764 65.3912 60.703 65.3912 56.2764V48.2764H57.3912C55.9245 48.2764 54.7245 47.0764 54.7245 45.6097V37.6097C54.7245 36.143 55.9245 34.943 57.3912 34.943H60.8311L56.2712 26.9697C55.3112 25.3164 53.5513 24.2764 51.6313 24.2764H46.7245V42.943C46.7245 45.8764 44.3245 48.2764 41.3912 48.2764H38.7245" stroke="#474747" stroke-width="1.5" stroke-linecap="round" stroke-linejoin="round"/>
<path d="M28.0579 69.6095C31.0035 69.6095 33.3913 67.2217 33.3913 64.2762C33.3913 61.3307 31.0035 58.9429 28.0579 58.9429C25.1124 58.9429 22.7246 61.3307 22.7246 64.2762C22.7246 67.2217 25.1124 69.6095 28.0579 69.6095Z" stroke="#474747" stroke-width="1.5" stroke-linecap="round" stroke-linejoin="round"/>
<path d="M49.3912 69.6095C52.3367 69.6095 54.7245 67.2217 54.7245 64.2762C54.7245 61.3307 52.3367 58.9429 49.3912 58.9429C46.4457 58.9429 44.0579 61.3307 44.0579 64.2762C44.0579 67.2217 46.4457 69.6095 49.3912 69.6095Z" stroke="#474747" stroke-width="1.5" stroke-linecap="round" stroke-linejoin="round"/>
<path d="M65.3913 42.9429V48.2762H57.3913C55.9246 48.2762 54.7246 47.0762 54.7246 45.6095V37.6095C54.7246 36.1429 55.9246 34.9429 57.3913 34.9429H60.8312L65.3913 42.9429Z" stroke="#474747" stroke-width="1.5" stroke-linecap="round" stroke-linejoin="round"/>
<path d="M12.0579 32.2764H28.0579" stroke="#474747" stroke-width="1.5" stroke-linecap="round" stroke-linejoin="round"/>
<path d="M12.0579 40.2764H22.7245" stroke="#474747" stroke-width="1.5" stroke-linecap="round" stroke-linejoin="round"/>
<path d="M12.0579 48.2764H17.3912" stroke="#474747" stroke-width="1.5" stroke-linecap="round" stroke-linejoin="round"/>
</g>
<defs>
<clipPath id="clip0_30_3659">
<rect width="71" height="71" fill="white" transform="translate(0.224609 0.942871)"/>
</clipPath>
</defs>
</svg>
