<svg width="72" height="72" viewBox="0 0 72 72" fill="none" xmlns="http://www.w3.org/2000/svg">
<path d="M32.8488 58.6304H22.4355C20.6013 58.6304 18.9742 58.5712 17.5246 58.3641C9.74422 57.5062 7.6438 53.8379 7.6438 43.8387V29.047C7.6438 19.0479 9.74422 15.3795 17.5246 14.5216C18.9742 14.3145 20.6013 14.2554 22.4355 14.2554H32.6713" stroke="#24262B" stroke-width="1.5" stroke-linecap="round" stroke-linejoin="round"/>
<path d="M44.6821 14.2554H49.0605C50.8946 14.2554 52.5217 14.3145 53.9713 14.5216C61.7517 15.3795 63.8521 19.0479 63.8521 29.047V43.8387C63.8521 53.8379 61.7517 57.5062 53.9713 58.3641C52.5217 58.5712 50.8946 58.6304 49.0605 58.6304H44.6821" stroke="#24262B" stroke-width="1.5" stroke-linecap="round" stroke-linejoin="round"/>
<path d="M44.623 6.85938V66.026" stroke="#24262B" stroke-width="1.5" stroke-linecap="round" stroke-linejoin="round"/>
<path d="M33.0696 36.443H33.0962" stroke="#24262B" stroke-width="2" stroke-linecap="round" stroke-linejoin="round"/>
<path d="M21.2361 36.443H21.2627" stroke="#24262B" stroke-width="2" stroke-linecap="round" stroke-linejoin="round"/>
</svg>
